#!OML:ASF I:\golf\golf\golf 2\Subject 1\2002-09-07\Subject1.ASF
:FULLY-SPECIFIED
:DEGREES
495
root 0.167021 17.973 -3.17616 13.0431 -3.27435 -2.71983
lowerback 8.41636 3.67895 -4.15402
upperback 4.4101 4.63906 4.91524
thorax -0.855151 2.2315 7.03766
lowerneck -21.7017 -1.48194 -1.25453
upperneck 24.4076 -1.02604 -2.13664
head 11.5691 -0.856784 -0.745138
rclavicle -6.32135e-014 -2.3059e-014
rhumerus -14.4687 11.0107 -79.5763
rradius 32.752
rwrist -12.6816
rhand -22.9281 9.33369
rfingers 7.12502
rthumb 3.51257 -20.6171
lclavicle -6.32135e-014 -2.3059e-014
lhumerus -30.3905 -27.543 103.471
lradius 53.2408
lwrist 17.5302
lhand -7.0522 38.5049
lfingers 7.12502
lthumb 18.8206 67.6144
rfemur -19.1843 -5.88901 23.559
rtibia 29.2696
rfoot -18.1545 -2.36776
rtoes -3.44848
lfemur -31.1479 0.160119 -8.46777
ltibia 18.2521
lfoot 3.06758 -2.028
ltoes -15.1495
496
root 0.122871 18.0047 -3.20135 12.9544 -3.29053 -2.89752
lowerback 7.99944 3.5375 -3.95846
upperback 4.24454 4.47936 4.962
thorax -0.763704 2.15589 7.01072
lowerneck -21.7729 -1.35326 -1.15844
upperneck 23.9575 -0.894748 -2.10601
head 11.4115 -0.783072 -0.724466
rclavicle 7.95139e-015 3.02153e-014
rhumerus -14.5626 10.8796 -79.6221
rradius 32.3953
rwrist -12.4505
rhand -22.6003 9.4481
rfingers 7.12502
rthumb 3.82906 -20.4972
lclavicle 7.95139e-015 3.02153e-014
lhumerus -30.4787 -26.5723 103.345
lradius 52.735
lwrist 17.0945
lhand -11.1379 35.0881
lfingers 7.12502
lthumb 14.8877 64.5332
rfemur -18.6928 -5.43352 23.9007
rtibia 28.4199
rfoot -17.8591 -2.61115
rtoes -1.6902
lfemur -30.5178 -0.355325 -7.8844
ltibia 17.3255
lfoot 3.27627 -1.12488
ltoes -14.2127
497
root 0.0793911 18.0188 -3.22444 12.84 -3.22222 -2.999
lowerback 7.62699 3.35654 -3.81897
upperback 4.06072 4.26112 5.00109
thorax -0.710243 2.05175 7.00924
lowerneck -21.7776 -1.2287 -1.10997
upperneck 23.5247 -0.773687 -2.00432
head 11.2495 -0.70878 -0.671435
rclavicle -2.74323e-014 7.95139e-015
rhumerus -14.6798 10.5787 -79.6675
rradius 32.0273
rwrist -12.2018
rhand -22.4536 9.72188
rfingers 7.12502
rthumb 3.97076 -20.2209
lclavicle -2.74323e-014 7.95139e-015
lhumerus -30.656 -25.5627 103.262
lradius 52.3162
lwrist 16.542
lhand -12.2251 33.9906
lfingers 7.12502
lthumb 13.8401 63.5101
rfemur -18.2015 -5.06279 24.1653
rtibia 27.6247
rfoot -17.9899 -2.51465
rtoes 4.39455
lfemur -29.9462 -0.742266 -7.4798
ltibia 16.4908
lfoot 3.37621 -0.488794
ltoes -14.724
498
root 0.0367548 18.0289 -3.24576 12.7047 -3.10454 -3.08842
lowerback 7.28832 3.12906 -3.71084
upperback 3.88418 3.9772 5.05828
thorax -0.661218 1.91398 7.04822
lowerneck -21.8254 -1.10025 -1.05748
upperneck 23.1287 -0.637793 -1.935
head 11.1106 -0.631984 -0.630011
rclavicle 2.10712e-014 -3.10104e-014
rhumerus -14.74 10.4309 -79.7217
rradius 31.5881
rwrist -12.0292
rhand -22.3736 9.98361
rfingers 7.12502
rthumb 4.04805 -19.9577
lclavicle 2.10712e-014 -3.10104e-014
lhumerus -30.7408 -24.5191 103.171
lradius 51.7409
lwrist 15.9279
lhand -12.0736 33.8019
lfingers 7.12502
lthumb 13.9861 63.3114
rfemur -17.6983 -4.69721 24.4096
rtibia 26.8631
rfoot -17.5164 -2.75547
rtoes 5.86999
lfemur -29.3968 -0.881666 -7.22665
ltibia 15.7357
lfoot 3.39431 -0.150555
ltoes -16.4257
499
root -0.00598377 18.0378 -3.26716 12.5442 -3.05671 -3.18668
lowerback 6.986 2.91986 -3.69238
upperback 3.73502 3.71033 5.14087
thorax -0.613 1.78287 7.16129
lowerneck -21.9755 -0.9788 -1.02534
upperneck 22.7818 -0.500632 -1.86978
head 11.0102 -0.55754 -0.588195
rclavicle 1.47101e-014 -1.51076e-014
rhumerus -14.7895 10.3453 -79.7542
rradius 31.1768
rwrist -11.8702
rhand -22.1579 10.2108
rfingers 7.12502
rthumb 4.25631 -19.7264
lclavicle 1.47101e-014 -1.51076e-014
lhumerus -30.7887 -23.5453 103.054
lradius 51.1357
lwrist 15.248
lhand -11.9882 33.6769
lfingers 7.12502
lthumb 14.0684 63.1807
rfemur -17.2316 -4.14281 24.6154
rtibia 26.224
rfoot -17.2455 -2.98827
rtoes 8.57339
lfemur -28.9131 -1.02488 -6.95356
ltibia 15.2132
lfoot 3.23417 0.395662
ltoes -17.695
500
root -0.0483044 18.05 -3.28763 12.3599 -3.03862 -3.28492
lowerback 6.73851 2.75441 -3.65884
upperback 3.55801 3.50159 5.20039
thorax -0.629859 1.68369 7.2307
lowerneck -21.9059 -0.89787 -1.01999
upperneck 22.3632 -0.436024 -1.7305
head 10.842 -0.507244 -0.524621
rclavicle -1.59028e-015 4.21423e-014
rhumerus -14.9763 10.0867 -79.7815
rradius 30.8829
rwrist -11.7097
rhand -22.0302 10.2651
rfingers 7.12502
rthumb 4.3796 -19.6696
lclavicle -1.59028e-015 4.21423e-014
lhumerus -31.0746 -22.7192 102.977
lradius 50.758
lwrist 14.6884
lhand -12.0742 34.007
lfingers 7.12502
lthumb 13.9855 63.5165
rfemur -16.7434 -3.54241 24.7951
rtibia 25.6005
rfoot -17.1206 -3.20692
rtoes 11.2476
lfemur -28.4506 -1.26219 -6.64771
ltibia 14.8419
lfoot 2.95966 1.23099
ltoes -17.4253
501
root -0.0869242 18.0637 -3.30678 12.2464 -3.02144 -3.39173
lowerback 6.38127 2.60448 -3.53944
upperback 3.40503 3.31847 5.24731
thorax -0.559081 1.59495 7.23876
lowerneck -21.8547 -0.837786 -1.01936
upperneck 21.9197 -0.400987 -1.5798
head 10.6691 -0.469291 -0.461417
rclavicle 4.05521e-014 -7.95139e-015
rhumerus -15.1653 9.7829 -79.7604
rradius 30.7375
rwrist -11.4976
rhand -22.1131 10.0725
rfingers 7.12502
rthumb 4.29954 -19.8638
lclavicle 4.05521e-014 -7.95139e-015
lhumerus -31.2653 -22.0067 102.917
lradius 50.2656
lwrist 14.1467
lhand -11.0298 35.3323
lfingers 7.12502
lthumb 14.9917 64.7696
rfemur -16.3292 -3.16419 25.0068
rtibia 24.9937
rfoot -16.5461 -3.79047
rtoes 6.20764
lfemur -28.1205 -1.37294 -6.39824
ltibia 14.5909
lfoot 2.7386 2.03247
ltoes -16.7831
502
root -0.122788 18.0743 -3.32519 12.1567 -3.07539 -3.52406
lowerback 5.99602 2.47114 -3.36419
upperback 3.28037 3.15833 5.27971
thorax -0.44324 1.51612 7.19736
lowerneck -21.9762 -0.762146 -0.946111
upperneck 21.5286 -0.344054 -1.506
head 10.5481 -0.426023 -0.436483
rclavicle 5.56597e-015 -3.10104e-014
rhumerus -15.3108 9.2514 -79.7398
rradius 30.5822
rwrist -11.0725
rhand -22.0114 9.80071
rfingers 7.12502
rthumb 4.39773 -20.1336
lclavicle 5.56597e-015 -3.10104e-014
lhumerus -31.273 -21.3175 102.819
lradius 49.5255
lwrist 13.5394
lhand -7.4119 38.5057
lfingers 7.12502
lthumb 18.4746 67.6484
rfemur -15.9787 -2.90801 25.2539
rtibia 24.434
rfoot -16.1572 -3.9951
rtoes 4.75154
lfemur -27.8152 -1.24366 -6.22289
ltibia 14.3998
lfoot 2.69536 2.74591
ltoes -17.2464
503
root -0.159241 18.0821 -3.34391 11.985 -3.11682 -3.55286
lowerback 5.75804 2.33045 -3.32456
upperback 3.10189 2.98042 5.29454
thorax -0.468336 1.43248 7.20867
lowerneck -21.839 -0.678906 -0.795979
upperneck 21.0527 -0.284096 -1.52324
head 10.3491 -0.385196 -0.454747
rclavicle 3.89618e-014 2.46493e-014
rhumerus -15.5204 8.62082 -79.7339
rradius 30.2776
rwrist -10.6366
rhand -21.7969 9.5844
rfingers 7.12502
rthumb 4.60491 -20.3455
lclavicle 3.89618e-014 2.46493e-014
lhumerus -31.3973 -20.7547 102.8
lradius 48.8026
lwrist 13.1999
lhand -11.1655 35.2528
lfingers 7.12502
lthumb 14.861 64.6999
rfemur -15.585 -2.62242 25.3859
rtibia 23.9272
rfoot -16.0016 -4.12057
rtoes 6.21594
lfemur -27.4635 -0.939184 -6.24889
ltibia 14.2787
lfoot 2.7155 3.34308
ltoes -18.3841
504
root -0.197172 18.0911 -3.36271 11.7873 -3.07944 -3.51069
lowerback 5.54576 2.17158 -3.44813
upperback 2.93885 2.7705 5.36391
thorax -0.496345 1.33101 7.37416
lowerneck -21.6165 -0.590329 -0.63339
upperneck 20.5133 -0.197781 -1.6378
head 10.1134 -0.342803 -0.505061
rclavicle 7.95139e-016 -5.08889e-014
rhumerus -15.7191 8.15657 -79.6162
rradius 29.9963
rwrist -10.3428
rhand -21.7771 9.43827
rfingers 7.12502
rthumb 4.62396 -20.4913
lclavicle 7.95139e-016 -5.08889e-014
lhumerus -31.5383 -20.2694 102.856
lradius 48.2059
lwrist 13.0398
lhand -12.4708 34.0896
lfingers 7.12502
lthumb 13.6033 63.6252
rfemur -15.1886 -2.44885 25.4608
rtibia 23.4817
rfoot -16.0573 -4.13578
rtoes 9.32293
lfemur -27.1571 -0.552935 -6.37834
ltibia 14.2085
lfoot 2.78745 3.93773
ltoes -18.8087
505
root -0.232379 18.102 -3.38163 11.6886 -3.02937 -3.50595
lowerback 5.20531 2.01994 -3.48079
upperback 2.83177 2.57414 5.42613
thorax -0.39142 1.23177 7.48277
lowerneck -21.7032 -0.511875 -0.486352
upperneck 20.0911 -0.118995 -1.73556
head 9.97802 -0.304854 -0.550124
rclavicle -2.42517e-014 -6.20208e-014
rhumerus -15.8313 7.63756 -79.449
rradius 29.8329
rwrist -10.0845
rhand -21.8664 9.3013
rfingers 7.12502
rthumb 4.53773 -20.6301
lclavicle -2.42517e-014 -6.20208e-014
lhumerus -31.5288 -19.9179 102.859
lradius 47.6638
lwrist 13.0149
lhand -10.5461 36.0283
lfingers 7.12502
lthumb 15.4577 65.4303
rfemur -14.946 -2.51744 25.5949
rtibia 23.0924
rfoot -15.9829 -4.02124
rtoes 10.9642
lfemur -26.9572 -0.211393 -6.44298
ltibia 14.2034
lfoot 2.8228 4.96683
ltoes -18.1127
